<svg xmlns="http://www.w3.org/2000/svg" version="1.1" xmlns:xlink="http://www.w3.org/1999/xlink" xmlns:svgjs="http://svgjs.dev/svgjs" width="2000" height="540" viewBox="0 0 2000 540"><g transform="matrix(1,0,0,1,-1.2121212121212466,0.42470301602782)"><svg viewBox="0 0 396 107" data-background-color="#000000" preserveAspectRatio="xMidYMid meet" height="540" width="2000" xmlns="http://www.w3.org/2000/svg" xmlns:xlink="http://www.w3.org/1999/xlink"><g id="tight-bounds" transform="matrix(1,0,0,1,0.2400000000000091,-0.08415411613884771)"><svg viewBox="0 0 395.52 107.1683082322777" height="107.1683082322777" width="395.52"><g><svg viewBox="0 0 395.52 107.1683082322777" height="107.1683082322777" width="395.52"><g><svg viewBox="0 0 395.52 107.1683082322777" height="107.1683082322777" width="395.52"><g id="textblocktransform"><svg viewBox="0 0 395.52 107.1683082322777" height="107.1683082322777" width="395.52" id="textblock"><g><svg viewBox="0 0 395.52 57.8014645744175" height="57.8014645744175" width="395.52"><g transform="matrix(1,0,0,1,0,0)"><svg width="395.52" viewBox="-0.3 -37.15 315.42 46.099999999999994" height="57.8014645744175" data-palette-color="#ffffff"><path d="M-0.3 6.85Q1.9 6.2 3.65 4.53 5.4 2.85 6.2 0.4L6.2 0.4Q6.85-1.5 7.05-4.03 7.25-6.55 7.25-11.8L7.25-11.8 7.25-34 2.45-34.65 2.45-37.15 17.15-37.15 17.15-34.65 12.6-34 12.6-13.75 12.6-11.4Q12.6-7.45 12.5-5.05 12.4-2.65 12.05-0.95L12.05-0.95Q11.15 3.05 8.1 5.65 5.05 8.25 1.05 8.95L1.05 8.95-0.3 6.85ZM44.05 0.45Q42.65 0.45 41.97-0.1 41.3-0.65 41.3-1.9L41.3-1.9 41.3-3.6Q39.65-1.95 37.17-0.7 34.7 0.55 32.2 0.55L32.2 0.55Q27.55 0.55 25.6-1.95 23.65-4.45 23.65-10.2L23.65-10.2 23.65-24.7 20.85-25.5 20.85-27.7 27.85-28.35 27.9-28.35 28.85-27.75 28.85-10.6Q28.85-7.7 29.27-6.08 29.7-4.45 30.77-3.68 31.85-2.9 33.9-2.9L33.9-2.9Q35.9-2.9 37.65-3.75 39.4-4.6 40.7-5.75L40.7-5.75 40.7-24.7 37.1-25.5 37.1-27.7 44.7-28.35 44.75-28.35 45.9-27.75 45.9-2.55 48.9-2.55 48.85-0.3Q47.45 0.05 46.42 0.25 45.4 0.45 44.05 0.45L44.05 0.45ZM56.65-7.9L57.55-4Q58.05-3.25 59.67-2.65 61.3-2.05 63.1-2.05L63.1-2.05Q65.95-2.05 67.3-3.15 68.65-4.25 68.65-6.2L68.65-6.2Q68.65-7.55 67.8-8.55 66.95-9.55 65.42-10.33 63.9-11.1 61.05-12.2L61.05-12.2Q57.2-13.65 55.42-15.68 53.65-17.7 53.65-21L53.65-21Q53.65-23.2 54.97-24.85 56.3-26.5 58.62-27.43 60.95-28.35 63.8-28.35L63.8-28.35Q66.09-28.35 67.82-28 69.55-27.65 70.59-27.3 71.65-26.95 72-26.85L72-26.85 72-20.65 68.95-20.65 67.95-24.35Q67.65-24.95 66.34-25.38 65.05-25.8 63.45-25.8L63.45-25.8Q61.2-25.8 59.82-24.8 58.45-23.8 58.45-22.1L58.45-22.1Q58.45-20.6 59.17-19.63 59.9-18.65 61-18.05 62.1-17.45 64-16.65L64-16.65 65-16.25Q67.8-15.15 69.55-14.15 71.3-13.15 72.47-11.53 73.65-9.9 73.65-7.55L73.65-7.55Q73.65-3.85 70.77-1.65 67.9 0.55 62.9 0.55L62.9 0.55Q60.45 0.55 57.77-0.13 55.1-0.8 53.4-1.5L53.4-1.5 53.4-7.9 56.65-7.9ZM86.69 0.5Q83.84 0.5 82.44-0.8 81.04-2.1 81.04-5.25L81.04-5.25 81.04-24.45 77.44-24.45 77.44-26.7Q77.69-26.75 78.84-27.05 79.99-27.35 80.39-27.6L80.39-27.6Q81.19-28.05 81.64-29.4L81.64-29.4Q82.04-30.35 82.59-32.45 83.14-34.55 83.24-34.95L83.24-34.95 86.19-34.95 86.29-27.75 94.64-27.75 94.64-24.45 86.29-24.45 86.29-9.1Q86.29-6.25 86.47-5.1 86.64-3.95 87.22-3.6 87.79-3.25 89.19-3.25L89.19-3.25Q90.54-3.25 92.17-3.6 93.79-3.95 94.69-4.35L94.69-4.35 95.44-2.1Q94.24-1.2 91.57-0.35 88.89 0.5 86.69 0.5L86.69 0.5ZM103.59-2.95L103.59-34.05 98.94-34.65 98.94-37.15 113.64-37.15 113.64-34.65 108.99-34.05 108.99-2.95 113.64-2.4 113.64 0 98.99 0 98.99-2.45 103.59-2.95ZM121.64-2.9L121.64-23.9 118.04-24.8 118.04-27.5 125.19-28.4 125.34-28.4 126.39-27.5 126.39-25.4 126.34-24.2Q128.14-25.8 131.09-27.1 134.04-28.4 136.74-28.4L136.74-28.4Q139.89-28.4 141.61-27.2 143.34-26 144.04-23.53 144.74-21.05 144.74-16.85L144.74-16.85 144.74-2.85 148.24-2.5 148.24 0 136.39 0 136.39-2.45 139.49-2.85 139.49-16.9Q139.49-19.85 139.09-21.53 138.69-23.2 137.59-24.03 136.49-24.85 134.39-24.85L134.39-24.85Q132.59-24.85 130.54-23.95 128.49-23.05 126.89-21.85L126.89-21.85 126.89-2.9 130.29-2.45 130.29 0 118.49 0 118.49-2.45 121.64-2.9ZM154.84-2.9L154.84-23.9 151.24-24.8 151.24-27.5 158.39-28.4 158.54-28.4 159.59-27.5 159.59-25.4 159.54-24.2Q161.34-25.8 164.29-27.1 167.24-28.4 169.94-28.4L169.94-28.4Q173.09-28.4 174.81-27.2 176.54-26 177.24-23.53 177.94-21.05 177.94-16.85L177.94-16.85 177.94-2.85 181.44-2.5 181.44 0 169.59 0 169.59-2.45 172.69-2.85 172.69-16.9Q172.69-19.85 172.29-21.53 171.89-23.2 170.79-24.03 169.69-24.85 167.59-24.85L167.59-24.85Q165.79-24.85 163.74-23.95 161.69-23.05 160.09-21.85L160.09-21.85 160.09-2.9 163.49-2.45 163.49 0 151.69 0 151.69-2.45 154.84-2.9ZM185.03-13.95Q185.03-18.45 186.88-21.75 188.73-25.05 191.76-26.78 194.78-28.5 198.23-28.5L198.23-28.5Q204.53-28.5 207.71-24.5 210.88-20.5 210.88-14L210.88-14Q210.88-9.45 209.03-6.15 207.18-2.85 204.16-1.15 201.13 0.55 197.68 0.55L197.68 0.55Q191.38 0.55 188.21-3.45 185.03-7.45 185.03-13.95L185.03-13.95ZM197.98-2.3Q201.43-2.3 203.28-5.15 205.13-8 205.13-13.6L205.13-13.6Q205.13-19.15 203.43-22.4 201.73-25.65 197.98-25.65L197.98-25.65Q194.53-25.65 192.66-22.8 190.78-19.95 190.78-14.35L190.78-14.35Q190.78-8.8 192.53-5.55 194.28-2.3 197.98-2.3L197.98-2.3ZM213.13-25.4L213.13-27.75 224.73-27.75 224.73-25.4 221.18-24.75 226.23-10.35 228.33-4 230.13-10.15 235.18-24.75 231.78-25.4 231.78-27.75 241.93-27.75 241.93-25.4 239.33-24.75 229.68 0.4 225.43 0.4 215.38-24.75 213.13-25.4ZM243.83-7.5Q243.83-12.2 248.53-14.43 253.23-16.65 260.43-16.8L260.43-16.8 260.43-18.2Q260.43-20.55 259.93-21.9 259.43-23.25 258.2-23.88 256.98-24.5 254.73-24.5L254.73-24.5Q252.18-24.5 250.15-23.78 248.13-23.05 246.13-22L246.13-22 244.88-24.6Q245.53-25.15 247.28-26.05 249.03-26.95 251.33-27.65 253.63-28.35 255.93-28.35L255.93-28.35Q259.48-28.35 261.55-27.38 263.63-26.4 264.53-24.25 265.43-22.1 265.43-18.5L265.43-18.5 265.43-2.45 268.38-2.45 268.38-0.25Q267.38 0 265.85 0.25 264.33 0.5 263.18 0.5L263.18 0.5Q261.78 0.5 261.28 0.08 260.78-0.35 260.78-1.8L260.78-1.8 260.78-3.45Q259.28-1.95 257.1-0.7 254.93 0.55 252.18 0.55L252.18 0.55Q248.58 0.55 246.2-1.53 243.83-3.6 243.83-7.5L243.83-7.5ZM254.33-2.85Q255.63-2.85 257.33-3.65 259.03-4.45 260.43-5.55L260.43-5.55 260.43-14.15Q254.98-14.15 252.2-12.48 249.43-10.8 249.43-8.1L249.43-8.1Q249.43-5.4 250.75-4.13 252.08-2.85 254.33-2.85L254.33-2.85ZM280.43 0.5Q277.58 0.5 276.18-0.8 274.78-2.1 274.78-5.25L274.78-5.25 274.78-24.45 271.18-24.45 271.18-26.7Q271.43-26.75 272.58-27.05 273.73-27.35 274.13-27.6L274.13-27.6Q274.93-28.05 275.38-29.4L275.38-29.4Q275.78-30.35 276.33-32.45 276.88-34.55 276.98-34.95L276.98-34.95 279.93-34.95 280.03-27.75 288.38-27.75 288.38-24.45 280.03-24.45 280.03-9.1Q280.03-6.25 280.2-5.1 280.38-3.95 280.95-3.6 281.53-3.25 282.93-3.25L282.93-3.25Q284.28-3.25 285.9-3.6 287.53-3.95 288.43-4.35L288.43-4.35 289.18-2.1Q287.98-1.2 285.3-0.35 282.63 0.5 280.43 0.5L280.43 0.5ZM304.52 0.55Q298.47 0.55 295.3-3.4 292.12-7.35 292.12-13.95L292.12-13.95Q292.12-18.3 293.77-21.6 295.42-24.9 298.4-26.7 301.37-28.5 305.17-28.5L305.17-28.5Q309.82-28.5 312.4-25.93 314.97-23.35 315.12-18.55L315.12-18.55Q315.12-15.5 314.77-13.9L314.77-13.9 297.57-13.9Q297.67-8.95 299.87-5.93 302.07-2.9 306.12-2.9L306.12-2.9Q308.12-2.9 310.3-3.63 312.47-4.35 313.67-5.35L313.67-5.35 314.62-3.15Q313.17-1.65 310.32-0.55 307.47 0.55 304.52 0.55L304.52 0.55ZM297.62-16.55L309.62-16.55Q309.77-17.6 309.77-18.7L309.77-18.7Q309.72-21.95 308.4-23.83 307.07-25.7 304.22-25.7L304.22-25.7Q301.32-25.7 299.6-23.6 297.87-21.5 297.62-16.55L297.62-16.55Z" opacity="1" transform="matrix(1,0,0,1,0,0)" fill="#ffffff" class="wordmark-text-0" data-fill-palette-color="primary" id="text-0"></path></svg></g></svg></g><g transform="matrix(1,0,0,1,0,71.4470031252877)"><svg viewBox="0 0 395.52 35.721305106990016" height="35.721305106990016" width="395.52"><g transform="matrix(1,0,0,1,0,0)"><svg width="395.52" viewBox="2.86 -32.4 358.71 32.4" height="35.721305106990016" data-palette-color="#ffffff"><path d="M27.69 0L15.36 0 15.36-6.47 23.36-6.47 23.36-25.93 15.36-25.93 15.36-32.4 27.69-32.4 34.18-25.93 34.18-6.47 27.69 0ZM2.86 0L2.86-32.4 13.65-32.4 13.65 0 2.86 0ZM81.2-13.31L70.87-13.31 70.87 0 60.08 0 60.08-32.4 70.87-32.4 70.87-19.56 81.2-19.56 81.2-13.31ZM79.29-26.12L72.58-26.12 72.58-32.4 89.45-32.4 89.45-23.02 79.29-23.02 79.29-26.12ZM89.45 0L72.58 0 72.58-6.47 78.66-6.47 78.66-9.72 89.45-9.72 89.45 0ZM139.93 0L135.59 0 135.59-12.13 121.57-12.13 115.08-18.63 115.08-25.93 121.57-32.4 125.24-32.4 125.24-20.9 140.13-20.9 146.4-14.4 146.4-6.47 139.93 0ZM135.59-26.56L126.95-26.56 126.95-32.4 139.91-32.4 145.52-26.76 145.52-23.32 135.59-23.32 135.59-26.56ZM115.08-6.47L115.08-9.72 125.87-9.72 125.87-5.86 133.88-5.86 133.88 0 120.52 0 115.08-6.47ZM172.08 0L172.08-6.91 175.33-6.91 175.33-25.51 172.08-25.51 172.08-32.4 189.37-32.4 189.37-25.51 186.12-25.51 186.12-6.91 189.37-6.91 189.37 0 172.08 0ZM226.28-32.4L226.28-6.47 235.53-6.47 235.53 0 221.96 0 215.49-6.47 215.49-25.93 221.96-32.4 226.28-32.4ZM231.99-11.55L231.99-17.97 246.81-17.97 246.81 0 237.24 0 237.24-11.55 231.99-11.55ZM236.02-25.93L227.99-25.93 227.99-32.4 241.15-32.4 246.81-25.93 246.81-22.68 236.02-22.68 236.02-25.93ZM284.38-32.4L304.08 0 292.61 0 272.98-32.4 284.38-32.4ZM282.38 0L272.98 0 272.98-29.32 282.38-13.92 282.38 0ZM294.68-32.4L304.08-32.4 304.08-3.08 294.68-18.55 294.68-32.4ZM355.1 0L350.76 0 350.76-12.13 336.74-12.13 330.25-18.63 330.25-25.93 336.74-32.4 340.41-32.4 340.41-20.9 355.3-20.9 361.57-14.4 361.57-6.47 355.1 0ZM350.76-26.56L342.12-26.56 342.12-32.4 355.08-32.4 360.69-26.76 360.69-23.32 350.76-23.32 350.76-26.56ZM330.25-6.47L330.25-9.72 341.04-9.72 341.04-5.86 349.05-5.86 349.05 0 335.69 0 330.25-6.47Z" opacity="1" transform="matrix(1,0,0,1,0,0)" fill="#ffffff" class="slogan-text-1" data-fill-palette-color="secondary" id="text-1"></path></svg></g></svg></g></svg></g></svg></g><g></g></svg></g><defs></defs></svg><rect width="395.52" height="107.1683082322777" fill="none" stroke="none" visibility="hidden"></rect></g></svg></g></svg>